<svg width="72" height="16" viewBox="0 0 72 16" fill="none" xmlns="http://www.w3.org/2000/svg">
<path d="M0.710227 2.99006H5.16335V15H8.20312V2.99006H12.6562V0.454545H0.710227V2.99006ZM17.0046 15.1776C18.766 15.1776 19.6822 14.1619 20.1012 13.2528H20.229V15H23.212V4.09091H20.1935V5.9233H20.1012C19.6964 5.03551 18.8228 3.94886 16.9975 3.94886C14.604 3.94886 12.5799 5.80966 12.5799 9.55966C12.5799 13.2102 14.5188 15.1776 17.0046 15.1776ZM17.9634 12.7699C16.479 12.7699 15.6694 11.4489 15.6694 9.54545C15.6694 7.65625 16.4648 6.35653 17.9634 6.35653C19.4336 6.35653 20.2575 7.59943 20.2575 9.54545C20.2575 11.4915 19.4194 12.7699 17.9634 12.7699ZM34.7763 7.2017C34.5064 5.19176 32.8871 3.94886 30.1314 3.94886C27.3402 3.94886 25.5007 5.24148 25.5078 7.34375C25.5007 8.97727 26.5305 10.0355 28.6612 10.4616L30.5504 10.8381C31.5021 11.0298 31.9354 11.3778 31.9496 11.9247C31.9354 12.571 31.2322 13.0327 30.174 13.0327C29.0945 13.0327 28.3771 12.571 28.1925 11.6832L25.2166 11.8395C25.5007 13.9276 27.2763 15.2131 30.1669 15.2131C32.9936 15.2131 35.0178 13.7713 35.0249 11.6193C35.0178 10.0426 33.9879 9.09801 31.8714 8.66477L29.897 8.26705C28.8814 8.04688 28.505 7.69886 28.5121 7.1733C28.505 6.51989 29.2436 6.09375 30.1811 6.09375C31.2322 6.09375 31.8572 6.66903 32.0064 7.37216L34.7763 7.2017ZM36.93 15H39.9556V11.5341L40.7724 10.6037L43.7482 15H47.2923L43.038 8.81392L47.0863 4.09091H43.6133L40.119 8.23153H39.9556V0.454545H36.93V15ZM52.1413 15.1776C53.9027 15.1776 54.8189 14.1619 55.2379 13.2528H55.3658V15H58.3487V0.454545H55.3303V5.9233H55.2379C54.8331 5.03551 53.9595 3.94886 52.1342 3.94886C49.7408 3.94886 47.7166 5.80966 47.7166 9.55966C47.7166 13.2102 49.6555 15.1776 52.1413 15.1776ZM53.1001 12.7699C51.6158 12.7699 50.8061 11.4489 50.8061 9.54545C50.8061 7.65625 51.6016 6.35653 53.1001 6.35653C54.5703 6.35653 55.3942 7.59943 55.3942 9.54545C55.3942 11.4915 54.5561 12.7699 53.1001 12.7699ZM65.7653 15.2131C69.0749 15.2131 71.1346 12.9474 71.1346 9.58807C71.1346 6.20739 69.0749 3.94886 65.7653 3.94886C62.4556 3.94886 60.396 6.20739 60.396 9.58807C60.396 12.9474 62.4556 15.2131 65.7653 15.2131ZM65.7795 12.8693C64.2525 12.8693 63.4712 11.4702 63.4712 9.56676C63.4712 7.66335 64.2525 6.2571 65.7795 6.2571C67.2781 6.2571 68.0593 7.66335 68.0593 9.56676C68.0593 11.4702 67.2781 12.8693 65.7795 12.8693Z" fill="black"/>
</svg>
